<svg xmlns:dc="http://purl.org/dc/elements/1.1/" xmlns:cc="http://creativecommons.org/ns#" xmlns:rdf="http://www.w3.org/1999/02/22-rdf-syntax-ns#" xmlns:svg="http://www.w3.org/2000/svg" xmlns="http://www.w3.org/2000/svg" xmlns:sodipodi="http://sodipodi.sourceforge.net/DTD/sodipodi-0.dtd" xmlns:inkscape="http://www.inkscape.org/namespaces/inkscape" version="1.1" x="0px" y="0px" fill="#ffffff" viewBox="0 0 100 125"><g transform="translate(0,-952.36218)"><path style="text-indent:0;text-transform:none;direction:ltr;block-progression:tb;baseline-shift:baseline;color:#000000;enable-background:accumulate;" d="m 12,960.36217 c -3.8261,0 -7,3.1739 -7,7 l 0,50.00003 c 0,3.8261 3.1739,7 7,7 l 29,0 0,8 -6,0 c -1.5707,2e-4 -2.9998,1.4293 -3,3 l 0,6 c 2e-4,1.5707 1.4293,2.9998 3,3 l 30,0 c 1.5707,-2e-4 2.9998,-1.4293 3,-3 l 0,-6 c 0.014,-1.3016 -1.1148,-2.9713 -3,-3 l -6,0 0,-8 29,0 c 3.8261,0 7,-3.1739 7,-7 l 0,-50.00003 c 0,-3.8261 -3.1739,-7 -7,-7 z m 0,6 76,0 c 0.6059,0 1,0.3942 1,1 l 0,50.00003 c 0,0.6058 -0.3941,1 -1,1 l -76,0 c -0.6059,0 -1,-0.3942 -1,-1 l 0,-50.00003 c 0,-0.6058 0.3941,-1 1,-1 z m 41.875,9 c -1.2685,0.049 -2.4203,0.9303 -2.75,2.1562 l -8,28.00003 c -0.5726,1.5433 0.3863,3.2663 1.9688,3.7188 1.6206,0.4635 3.4452,-0.4511 3.7812,-2.0625 l 8,-28.00003 c 0.5551,-1.8179 -1.1005,-3.8754 -3,-3.8125 z m -14.6562,3.9375 c -0.6585,-0.04 -1.2925,0.2701 -1.8126,0.5 l -16,10 c -0.8607,0.536 -1.4062,1.5484 -1.4062,2.5625 0,1.0141 0.5455,1.9951 1.4062,2.5312 l 16,10.00003 c 1.3336,0.8347 3.3218,0.365 4.1563,-0.9687 0.8345,-1.3337 0.3648,-3.2904 -0.9687,-4.12503 l -11.9376,-7.4375 11.9376,-7.4688 c 1.1721,-0.6934 1.7474,-2.2405 1.3124,-3.5312 -0.3807,-1.1294 -1.5068,-1.9804 -2.6874,-2.0625 z m 21.6562,0.031 c -1.2822,0.039 -2.485,0.9783 -2.8125,2.2187 -0.3275,1.2404 0.2477,2.6771 1.3437,3.3437 l 11.9376,7.4688 -11.9376,7.4375 c -1.3335,0.83463 -1.8032,2.79133 -0.9687,4.12503 0.8345,1.3337 2.8227,1.8034 4.1563,0.9687 l 16,-10.00003 c 0.8607,-0.5361 1.4062,-1.5171 1.4062,-2.5312 0,-1.0141 -0.5456,-2.0265 -1.4062,-2.5625 l -16,-10 c -0.5085,-0.3242 -1.1162,-0.4899 -1.7188,-0.4687 z M 47,1024.3622 l 6,0 0,8 -6,0 z" fill="#fffff" fill-opacity="1" stroke="none" marker="none" visibility="visible" display="inline" overflow="visible"/></g></svg>
