<svg xmlns="http://www.w3.org/2000/svg" xmlns:xlink="http://www.w3.org/1999/xlink" version="1.1" x="0px" y="0px" viewBox="0 0 32 40" enable-background="new 0 0 32 32" xml:space="preserve"><g display="none"><rect x="-83" y="-43.75" display="inline" fill="#000000" width="400.25" height="201.25"/></g><g><path d="M9.5,24.194v3.516H8.333c-0.871,0-1.583,0.713-1.583,1.583s0.713,1.583,1.583,1.583h15.333   c0.871,0,1.583-0.712,1.583-1.583s-0.712-1.583-1.583-1.583H22.5v-3.516H9.5z M10.5,25.194h11v2.516h-11V25.194z M24.25,29.294   c0,0.316-0.267,0.583-0.583,0.583H8.333c-0.316,0-0.583-0.267-0.583-0.583c0-0.316,0.267-0.583,0.583-0.583h15.333   C23.983,28.711,24.25,28.978,24.25,29.294z"/><path d="M2,22.144h28c1.1,0,2-0.9,2-2v-17c0-1.1-0.9-2-2-2H2c-1.1,0-2,0.9-2,2v17C0,21.244,0.9,22.144,2,22.144z M1,3.144   c0-0.551,0.449-1,1-1h28c0.551,0,1,0.449,1,1v17c0,0.551-0.449,1-1,1H2c-0.551,0-1-0.449-1-1V3.144z"/><path d="M16,18.828c3.951,0,7.166-3.215,7.166-7.167c0-3.951-3.215-7.166-7.166-7.166S8.834,7.71,8.834,11.661   C8.834,15.613,12.049,18.828,16,18.828z M16.5,15.599c0.385,0.018,0.755,0.046,1.104,0.085c-0.385,0.606-0.78,1.115-1.104,1.495   V15.599z M16.5,14.587V12.05h2.506c-0.12,0.968-0.452,1.878-0.86,2.683C17.64,14.664,17.089,14.612,16.5,14.587z M16.5,11.05V8.54   c0.604-0.01,1.232-0.055,1.876-0.146c0.366,0.767,0.63,1.662,0.669,2.655H16.5z M16.5,7.54V5.816   c0.362,0.35,0.875,0.907,1.347,1.635C17.389,7.501,16.937,7.532,16.5,7.54z M15.5,7.522c-0.544-0.025-1.053-0.074-1.522-0.137   c0.569-0.859,1.184-1.47,1.522-1.774V7.522z M15.5,8.528v2.522h-2.768c0.04-1.022,0.321-1.941,0.705-2.725   C14.05,8.422,14.746,8.496,15.5,8.528z M15.5,12.05v2.523c-0.605,0.01-1.233,0.053-1.879,0.143c-0.404-0.8-0.732-1.704-0.85-2.666   H15.5z M15.5,15.581v1.854c-0.354-0.393-0.855-1.003-1.339-1.766C14.617,15.619,15.066,15.588,15.5,15.581z M14.309,17.587   c-0.956-0.273-1.815-0.772-2.521-1.435c0.432-0.133,0.864-0.243,1.292-0.325C13.49,16.528,13.928,17.123,14.309,17.587z    M18.692,15.838c0.625,0.108,1.139,0.229,1.506,0.328c-0.772,0.72-1.727,1.244-2.788,1.494   C17.801,17.188,18.263,16.569,18.692,15.838z M19.185,14.9c0.404-0.858,0.723-1.82,0.832-2.85h2.13   c-0.077,1.228-0.513,2.357-1.206,3.286C20.633,15.239,20.022,15.062,19.185,14.9z M20.046,11.05   c-0.035-1.061-0.291-2.013-0.654-2.841c0.472-0.102,0.946-0.23,1.422-0.391c0.724,0.905,1.201,2.016,1.322,3.232H20.046z    M18.927,7.291c-0.349-0.598-0.732-1.107-1.087-1.515c0.825,0.258,1.571,0.689,2.207,1.245C19.673,7.131,19.299,7.22,18.927,7.291z    M12.9,7.208C12.543,7.138,12.231,7.066,11.975,7c0.546-0.472,1.174-0.847,1.862-1.106C13.527,6.262,13.203,6.701,12.9,7.208z    M12.416,8.137c-0.379,0.845-0.648,1.822-0.684,2.913H9.865c0.12-1.215,0.596-2.324,1.319-3.229   C11.455,7.903,11.867,8.018,12.416,8.137z M11.761,12.05c0.109,1.031,0.429,1.994,0.833,2.853c-0.508,0.11-1.02,0.256-1.533,0.435   c-0.694-0.93-1.13-2.06-1.207-3.288H11.761z"/></g><g display="none"><path display="inline" d="M10,24.683V27.7H8.333c-0.871,0-1.583,0.713-1.583,1.583s0.713,1.583,1.583,1.583h15.333   c0.871,0,1.583-0.712,1.583-1.583S24.538,27.7,23.667,27.7H22v-3.017H10z"/><path display="inline" d="M19.006,12.05H16.5v2.537c0.589,0.025,1.14,0.077,1.646,0.145C18.555,13.927,18.887,13.017,19.006,12.05z   "/><path display="inline" d="M16.5,15.599v1.58c0.324-0.379,0.718-0.889,1.104-1.495C17.255,15.645,16.885,15.616,16.5,15.599z"/><path display="inline" d="M18.376,8.395C17.732,8.485,17.104,8.53,16.5,8.54v2.509h2.545C19.006,10.057,18.742,9.162,18.376,8.395z   "/><path display="inline" d="M16.5,5.816V7.54c0.437-0.007,0.889-0.039,1.347-0.089C17.375,6.723,16.862,6.166,16.5,5.816z"/><path display="inline" d="M20.048,7.021c-0.636-0.555-1.383-0.986-2.207-1.245c0.355,0.409,0.738,0.917,1.087,1.515   C19.299,7.22,19.673,7.131,20.048,7.021z"/><path display="inline" d="M12.732,11.05H15.5V8.528c-0.754-0.032-1.45-0.106-2.062-0.203C13.054,9.109,12.772,10.028,12.732,11.05z   "/><path display="inline" d="M15.5,5.611c-0.338,0.304-0.953,0.915-1.522,1.774c0.469,0.063,0.978,0.112,1.522,0.137V5.611z"/><path display="inline" d="M13.621,14.716c0.645-0.091,1.274-0.133,1.879-0.143V12.05h-2.729   C12.889,13.012,13.217,13.916,13.621,14.716z"/><path display="inline" d="M15.5,17.435v-1.854c-0.434,0.007-0.883,0.039-1.339,0.088C14.645,16.431,15.146,17.042,15.5,17.435z"/><path display="inline" d="M12.594,14.903c-0.404-0.858-0.724-1.822-0.833-2.853H9.854c0.077,1.228,0.513,2.357,1.207,3.288   C11.574,15.158,12.086,15.013,12.594,14.903z"/><path display="inline" d="M13.837,5.894C13.15,6.153,12.521,6.528,11.975,7c0.256,0.066,0.568,0.137,0.925,0.208   C13.203,6.701,13.527,6.262,13.837,5.894z"/><path display="inline" d="M2,22.133h28c1.1,0,2-0.9,2-2v-17c0-1.1-0.9-2-2-2H2c-1.1,0-2,0.9-2,2v17C0,21.233,0.9,22.133,2,22.133z    M16,4.495c3.951,0,7.166,3.215,7.166,7.166c0,3.952-3.215,7.167-7.166,7.167s-7.166-3.215-7.166-7.167   C8.834,7.71,12.049,4.495,16,4.495z"/><path display="inline" d="M19.185,14.9c0.837,0.162,1.448,0.339,1.755,0.436c0.693-0.93,1.129-2.059,1.206-3.286h-2.13   C19.908,13.08,19.588,14.042,19.185,14.9z"/><path display="inline" d="M20.046,11.05h2.09c-0.12-1.216-0.597-2.327-1.322-3.232c-0.476,0.161-0.95,0.289-1.422,0.391   C19.754,9.037,20.01,9.989,20.046,11.05z"/><path display="inline" d="M12.416,8.137c-0.549-0.119-0.961-0.234-1.232-0.317c-0.723,0.905-1.199,2.015-1.319,3.229h1.867   C11.768,9.959,12.037,8.982,12.416,8.137z"/><path display="inline" d="M11.787,16.152c0.706,0.663,1.565,1.161,2.521,1.435c-0.381-0.464-0.819-1.059-1.229-1.759   C12.651,15.909,12.219,16.019,11.787,16.152z"/><path display="inline" d="M17.41,17.659c1.062-0.25,2.016-0.773,2.788-1.494c-0.367-0.099-0.882-0.219-1.506-0.328   C18.263,16.569,17.801,17.188,17.41,17.659z"/></g><text x="0" y="47" fill="#000000" font-size="5px" font-weight="bold" font-family="'Helvetica Neue', Helvetica, Arial-Unicode, Arial, Sans-serif">Created by AlfredoCreates.com</text><text x="0" y="52" fill="#000000" font-size="5px" font-weight="bold" font-family="'Helvetica Neue', Helvetica, Arial-Unicode, Arial, Sans-serif">from the Noun Project</text></svg>